<svg xmlns="http://www.w3.org/2000/svg" width="300" height="300" fill="none" viewBox="0 0 300 300">
    <!-- <rect width="300" height="300" fill="white"></rect> -->
    <path id="l" fill="black" d="M40.1406 163H21.5117V136.393H26.8369V157.675H40.1406V163Z"></path>
    <path id="o" fill="black" d="M83.999 149.808C83.999 151.069 83.832 152.288 83.498 153.463C83.1764 154.626 82.7188 155.72 82.125 156.747C81.5312 157.761 80.8138 158.689 79.9727 159.53C79.1315 160.371 78.2038 161.095 77.1895 161.701C76.1751 162.295 75.0804 162.753 73.9053 163.074C72.7301 163.408 71.5117 163.575 70.25 163.575C68.9883 163.575 67.7699 163.408 66.5947 163.074C65.432 162.753 64.3372 162.295 63.3105 161.701C62.2962 161.095 61.3685 160.371 60.5273 159.53C59.6862 158.689 58.9626 157.761 58.3564 156.747C57.7627 155.72 57.2988 154.626 56.9648 153.463C56.6432 152.288 56.4824 151.069 56.4824 149.808C56.4824 148.546 56.6432 147.327 56.9648 146.152C57.2988 144.977 57.7627 143.882 58.3564 142.868C58.9626 141.854 59.6862 140.926 60.5273 140.085C61.3685 139.244 62.2962 138.526 63.3105 137.933C64.3372 137.339 65.432 136.881 66.5947 136.56C67.7699 136.226 68.9883 136.059 70.25 136.059C71.5117 136.059 72.7301 136.226 73.9053 136.56C75.0804 136.881 76.1751 137.339 77.1895 137.933C78.2038 138.526 79.1315 139.244 79.9727 140.085C80.8138 140.926 81.5312 141.854 82.125 142.868C82.7188 143.882 83.1764 144.977 83.498 146.152C83.832 147.327 83.999 148.546 83.999 149.808ZM78.7109 149.808C78.7109 148.645 78.4883 147.55 78.043 146.523C77.5977 145.484 76.9915 144.588 76.2246 143.833C75.4701 143.066 74.5732 142.46 73.5342 142.015C72.5075 141.569 71.4128 141.347 70.25 141.347C69.0749 141.347 67.974 141.569 66.9473 142.015C65.9206 142.46 65.0238 143.066 64.2568 143.833C63.4899 144.588 62.8838 145.484 62.4385 146.523C61.9932 147.55 61.7705 148.645 61.7705 149.808C61.7705 150.97 61.9932 152.065 62.4385 153.092C62.8838 154.106 63.4899 154.997 64.2568 155.764C65.0238 156.531 65.9206 157.137 66.9473 157.582C67.974 158.027 69.0749 158.25 70.25 158.25C71.4128 158.25 72.5075 158.027 73.5342 157.582C74.5732 157.137 75.4701 156.531 76.2246 155.764C76.9915 154.997 77.5977 154.106 78.043 153.092C78.4883 152.065 78.7109 150.97 78.7109 149.808Z"></path>
    <path id="a" fill="black" d="M118.575 152.368V147.043C118.575 146.313 118.433 145.627 118.148 144.983C117.876 144.328 117.499 143.759 117.017 143.276C116.534 142.794 115.965 142.417 115.31 142.145C114.666 141.86 113.98 141.718 113.25 141.718C112.52 141.718 111.827 141.86 111.172 142.145C110.529 142.417 109.966 142.794 109.483 143.276C109.001 143.759 108.618 144.328 108.333 144.983C108.061 145.627 107.925 146.313 107.925 147.043V152.368H118.575ZM123.9 163H118.575V157.675H107.925V163H102.618V147.043C102.618 145.571 102.896 144.192 103.453 142.905C104.01 141.606 104.764 140.475 105.717 139.51C106.682 138.545 107.807 137.784 109.094 137.228C110.393 136.671 111.778 136.393 113.25 136.393C114.722 136.393 116.101 136.671 117.388 137.228C118.687 137.784 119.818 138.545 120.783 139.51C121.748 140.475 122.509 141.606 123.065 142.905C123.622 144.192 123.9 145.571 123.9 147.043V163Z"></path>
    <path id="d" fill="black" d="M165.105 149.696C165.105 150.921 164.945 152.102 164.623 153.24C164.314 154.366 163.868 155.424 163.287 156.413C162.706 157.39 162.013 158.287 161.209 159.104C160.405 159.908 159.508 160.6 158.519 161.182C157.529 161.763 156.465 162.215 155.327 162.536C154.201 162.845 153.026 163 151.802 163H143.786V136.393H151.802C153.026 136.393 154.201 136.553 155.327 136.875C156.465 137.184 157.529 137.63 158.519 138.211C159.508 138.792 160.405 139.491 161.209 140.308C162.013 141.112 162.706 142.008 163.287 142.998C163.868 143.975 164.314 145.033 164.623 146.171C164.945 147.297 165.105 148.472 165.105 149.696ZM159.78 149.696C159.78 148.595 159.57 147.562 159.149 146.598C158.741 145.633 158.172 144.792 157.442 144.074C156.725 143.344 155.878 142.769 154.9 142.349C153.936 141.928 152.903 141.718 151.802 141.718H149.148V157.675H151.802C152.903 157.675 153.936 157.471 154.9 157.062C155.878 156.642 156.725 156.073 157.442 155.355C158.172 154.626 158.741 153.778 159.149 152.813C159.57 151.836 159.78 150.797 159.78 149.696Z"></path>
    <path id="i" fill="black" d="M188.903 163H183.578V136.393H188.903V163Z"></path>
    <path id="n" fill="black" d="M229.882 163H224.186L213.925 145.484V163H208.6V136.393H214.296L224.557 153.927V136.393H229.882V163Z"></path>
    <path id="g" fill="black" d="M270.753 160.31C269.516 161.361 268.137 162.171 266.615 162.74C265.094 163.297 263.51 163.575 261.865 163.575C260.604 163.575 259.385 163.408 258.21 163.074C257.047 162.753 255.959 162.295 254.944 161.701C253.93 161.095 253.002 160.378 252.161 159.549C251.32 158.708 250.603 157.78 250.009 156.766C249.415 155.739 248.951 154.638 248.617 153.463C248.296 152.288 248.135 151.069 248.135 149.808C248.135 148.546 248.296 147.334 248.617 146.171C248.951 145.008 249.415 143.92 250.009 142.905C250.603 141.879 251.32 140.951 252.161 140.122C253.002 139.281 253.93 138.563 254.944 137.97C255.959 137.376 257.047 136.918 258.21 136.597C259.385 136.263 260.604 136.096 261.865 136.096C263.51 136.096 265.094 136.38 266.615 136.949C268.137 137.506 269.516 138.31 270.753 139.361L267.97 144C267.166 143.184 266.238 142.547 265.187 142.089C264.135 141.619 263.028 141.384 261.865 141.384C260.702 141.384 259.608 141.606 258.581 142.052C257.567 142.497 256.676 143.103 255.909 143.87C255.142 144.625 254.536 145.515 254.091 146.542C253.646 147.556 253.423 148.645 253.423 149.808C253.423 150.983 253.646 152.084 254.091 153.11C254.536 154.137 255.142 155.034 255.909 155.801C256.676 156.568 257.567 157.174 258.581 157.619C259.608 158.064 260.702 158.287 261.865 158.287C262.533 158.287 263.183 158.207 263.813 158.046C264.444 157.885 265.044 157.662 265.613 157.378V149.808H270.753V160.31Z"></path>
</svg>